<?xml version="1.0" encoding="UTF-8" standalone="no"?>
<!DOCTYPE svg PUBLIC "-//W3C//DTD SVG 1.1//EN" "http://www.w3.org/Graphics/SVG/1.1/DTD/svg11.dtd">
<svg width="100%" height="100%" viewBox="0 0 487 644" version="1.1" xmlns="http://www.w3.org/2000/svg" xmlns:xlink="http://www.w3.org/1999/xlink" xml:space="preserve" xmlns:serif="http://www.serif.com/" style="fill-rule:evenodd;clip-rule:evenodd;stroke-linecap:round;stroke-linejoin:round;stroke-miterlimit:2;">
    <g transform="matrix(1,0,0,1,-2885,-726)">
        <g id="lesbian-gradient.afdesign" transform="matrix(1.35903,0,0,1.35903,3128.32,1047.8)">
            <g transform="matrix(1,0,0,1,-178.622,-236.673)">
                <clipPath id="_clip1">
                    <rect x="0" y="0" width="357.245" height="473.346"/>
                </clipPath>
                <g clip-path="url(#_clip1)">
                    <g id="bg-gradient" transform="matrix(1.01203,0,0,0.887247,-483.748,-306.544)">
                        <path d="M831,377.712L831,846.788C831,864.566 818.346,879 802.76,879L506.24,879C490.654,879 478,864.566 478,846.788L478,377.712C478,359.934 490.654,345.5 506.24,345.5L802.76,345.5C818.346,345.5 831,359.934 831,377.712Z" style="fill:url(#_Linear2);"/>
                        <path d="M831,377.712L831,846.788C831,864.566 818.346,879 802.76,879L506.24,879C490.654,879 478,864.566 478,846.788L478,377.712C478,359.934 490.654,345.5 506.24,345.5L802.76,345.5C818.346,345.5 831,359.934 831,377.712ZM829.992,377.712C829.992,360.568 817.79,346.65 802.76,346.65L506.24,346.65C491.21,346.65 479.008,360.568 479.008,377.712L479.008,846.788C479.008,863.932 491.21,877.85 506.24,877.85L802.76,877.85C817.79,877.85 829.992,863.932 829.992,846.788L829.992,377.712Z" style="fill:rgb(28,20,20);"/>
                    </g>
                    <g id="template-grey">
                        <g id="bg-outline" transform="matrix(1.01203,0,0,0.887247,-483.748,-306.544)">
                            <path d="M831,377.712L831,846.788C831,864.566 818.346,879 802.76,879L506.24,879C490.654,879 478,864.566 478,846.788L478,377.712C478,359.934 490.654,345.5 506.24,345.5L802.76,345.5C818.346,345.5 831,359.934 831,377.712ZM829.992,377.712C829.992,360.568 817.79,346.65 802.76,346.65L506.24,346.65C491.21,346.65 479.008,360.568 479.008,377.712L479.008,846.788C479.008,863.932 491.21,877.85 506.24,877.85L802.76,877.85C817.79,877.85 829.992,863.932 829.992,846.788L829.992,377.712Z" style="fill:rgb(28,20,20);"/>
                        </g>
                        <g id="foreground" transform="matrix(1.01203,0,0,0.846298,-483.748,-270.55)">
                            <path d="M831,381.608L831,845.23C831,863.868 818.346,879 802.76,879L506.24,879C490.654,879 478,863.868 478,845.23L478,454.415L545.911,455.275L630.02,382.628L831,381.608Z"/>
                            <path d="M831,381.608L831,845.23C831,863.868 818.346,879 802.76,879L506.24,879C490.654,879 478,863.868 478,845.23L478,454.415L545.911,455.275L630.02,382.628L831,381.608ZM829.683,383.19L630.449,384.202L546.331,456.856L479.317,456.007L479.317,845.23C479.317,862.999 491.381,877.425 506.24,877.425L802.76,877.425C817.619,877.425 829.683,862.999 829.683,845.23L829.683,383.19Z" style="fill:rgb(28,20,20);"/>
                        </g>
                        <g id="logos">
                            <g id="grey">
                                <g transform="matrix(1,0,0,1,-21.5439,-176.48)">
                                    <path d="M92,349C92,349 88.799,353.298 85,360.078C76.713,374.866 65.579,401.459 78.603,421C96.545,447.919 125.722,450.64 156.7,452.196C241.517,456.457 296.576,416.965 295,421L295,442C295,442 263.18,460.525 227.46,468.267C196.887,474.893 160.947,475.131 140,472.131C118.788,469.093 86.83,457.544 74,442C56.667,421 57.629,398.203 60,388.448C67.951,355.74 92,336.689 92,336.689L92,349Z" style="fill:rgb(167,167,167);"/>
                                </g>
                                <g transform="matrix(-1,0,0,-1,397.191,563.542)">
                                    <path d="M116,352.998C116,352.998 98.421,358.01 91,378.448C75.911,420 112.128,439.733 123.702,443.196C203.282,467.007 295.836,417.86 295,420L295,426C295,426 283.816,437.992 230.062,453.498C174.738,469.456 73,465.996 73,396.448C73,352.998 116,334.689 116,334.689L116,352.998Z" style="fill:rgb(167,167,167);"/>
                                </g>
                            </g>
                        </g>
                        <g id="insideTM">
                            <g transform="matrix(6.43606,0,0,6.43606,-1451.91,-4281.26)">
                                <path d="M239.715,720.186C239.715,720.444 239.653,720.623 239.53,720.722C239.407,720.822 239.217,720.872 238.959,720.872C238.678,720.872 238.483,720.813 238.376,720.696C238.269,720.579 238.215,720.409 238.215,720.186C238.215,719.944 238.272,719.769 238.385,719.662C238.498,719.554 238.69,719.5 238.959,719.5C239.229,719.5 239.422,719.553 239.539,719.659C239.656,719.764 239.715,719.94 239.715,720.186ZM238.338,727.95L238.338,721.803L239.598,721.803L239.598,727.95L238.338,727.95Z" style="fill:rgb(167,167,167);fill-rule:nonzero;stroke:rgb(159,159,159);stroke-width:0.16px;"/>
                            </g>
                            <g transform="matrix(6.43606,0,0,6.43606,-1451.91,-4281.26)">
                                <path d="M244.832,727.95L244.832,724.446C244.832,724.141 244.822,723.882 244.802,723.669C244.783,723.457 244.741,723.284 244.676,723.151C244.612,723.018 244.521,722.922 244.404,722.864C244.287,722.805 244.131,722.776 243.935,722.776C243.806,722.776 242.157,722.671 242.154,723.117C242.148,723.935 242.183,727.95 242.183,727.95L240.923,727.95L240.95,722.016C240.95,722.016 241.642,721.701 243.508,721.621C243.709,721.612 244.097,721.627 244.293,721.627C244.636,721.627 244.923,721.676 245.154,721.774C245.384,721.872 245.569,722.015 245.708,722.205C245.846,722.394 245.945,722.626 246.004,722.902C246.062,723.177 246.091,723.493 246.091,723.848L246.091,727.95L244.832,727.95Z" style="fill:rgb(167,167,167);fill-rule:nonzero;stroke:rgb(159,159,159);stroke-width:0.16px;stroke-linecap:butt;"/>
                            </g>
                            <g transform="matrix(6.43606,0,0,6.43606,-1451.91,-4281.26)">
                                <path d="M251.812,726.245C251.812,726.584 251.746,726.874 251.615,727.112C251.485,727.35 251.309,727.545 251.088,727.698C250.867,727.85 250.613,727.96 250.323,728.029C250.034,728.097 249.732,728.131 249.415,728.131C249.095,728.131 248.805,728.104 248.545,728.049C248.285,727.995 248.054,727.919 247.851,727.824C247.648,727.728 247.473,727.614 247.326,727.481C247.18,727.348 247.072,727.212 246.966,727.047C246.854,726.875 247.754,726.203 247.927,726.403C248.073,726.571 248.302,726.825 248.548,726.93C248.794,727.036 249.072,727.088 249.38,727.088C249.532,727.088 249.681,727.077 249.825,727.053C249.97,727.03 250.098,726.988 250.209,726.927C250.321,726.867 250.41,726.786 250.479,726.684C250.547,726.582 250.581,726.456 250.581,726.303C250.581,726.186 250.556,726.086 250.505,726.004C250.454,725.922 250.374,725.849 250.265,725.785C250.155,725.72 250.014,725.66 249.84,725.603C249.666,725.546 249.456,725.489 249.21,725.43C248.933,725.36 248.667,725.28 248.413,725.19C248.159,725.1 247.936,724.982 247.742,724.835C247.549,724.689 247.394,724.505 247.277,724.285C247.159,724.064 247.101,723.79 247.101,723.461C247.101,723.2 247.15,722.957 247.247,722.735C247.345,722.512 247.492,722.319 247.69,722.155C247.887,721.991 248.131,721.862 248.422,721.768C248.713,721.674 249.052,721.627 249.439,721.627C249.708,721.627 249.961,721.653 250.197,721.704C250.434,721.754 250.649,721.827 250.842,721.92C251.035,722.014 251.206,722.126 251.355,722.257C251.503,722.388 251.601,722.541 251.718,722.694C251.844,722.858 250.873,723.515 250.757,723.344C250.704,723.266 250.628,723.174 250.546,723.092C250.464,723.01 250.367,722.938 250.256,722.875C250.145,722.813 250.02,722.763 249.881,722.726C249.742,722.689 249.587,722.67 249.415,722.67C249.087,722.67 248.825,722.734 248.63,722.861C248.435,722.988 248.337,723.172 248.337,723.415C248.337,723.528 248.358,723.624 248.399,723.702C248.44,723.78 248.506,723.85 248.598,723.913C248.69,723.975 248.81,724.031 248.958,724.08C249.107,724.128 249.286,724.178 249.497,724.229C249.853,724.319 250.174,724.415 250.461,724.516C250.748,724.618 250.991,724.743 251.191,724.891C251.39,725.04 251.543,725.222 251.651,725.439C251.758,725.656 251.812,725.924 251.812,726.245Z" style="fill:rgb(167,167,167);fill-rule:nonzero;stroke:rgb(159,159,159);stroke-width:0.16px;stroke-linecap:butt;"/>
                            </g>
                            <g transform="matrix(6.43606,0,0,6.43606,-1451.91,-4281.26)">
                                <path d="M254.139,720.186C254.139,720.444 254.078,720.623 253.955,720.722C253.832,720.822 253.641,720.872 253.384,720.872C253.102,720.872 252.908,720.813 252.801,720.696C252.693,720.579 252.639,720.409 252.639,720.186C252.639,719.944 252.696,719.769 252.809,719.662C252.923,719.554 253.114,719.5 253.384,719.5C253.653,719.5 253.846,719.553 253.964,719.659C254.081,719.764 254.139,719.94 254.139,720.186ZM252.762,727.95L252.762,721.803L254.022,721.803L254.022,727.95L252.762,727.95Z" style="fill:rgb(167,167,167);fill-rule:nonzero;stroke:rgb(159,159,159);stroke-width:0.16px;stroke-linecap:butt;"/>
                            </g>
                            <g transform="matrix(6.43606,0,0,6.43606,-1451.91,-4281.26)">
                                <path d="M260.493,727.95C260.493,727.95 260.56,728.085 257.387,728.131C256.973,728.137 256.618,728.052 256.321,727.894C256.024,727.736 255.78,727.514 255.588,727.229C255.397,726.944 255.256,726.606 255.166,726.215C255.077,725.825 255.032,725.395 255.032,724.926C255.032,724.504 255.077,724.095 255.166,723.699C255.256,723.302 255.402,722.951 255.603,722.644C255.804,722.337 256.065,722.091 256.385,721.906C256.705,721.72 257.096,721.627 257.557,721.627C257.862,721.627 258.161,721.687 258.456,721.806C258.751,721.925 259.01,722.084 259.233,722.284L259.233,719.225L260.493,719.225L260.493,727.95ZM259.233,723.356C259.139,723.274 259.036,723.196 258.925,723.122C258.814,723.047 258.696,722.982 258.571,722.925C258.446,722.869 258.317,722.824 258.184,722.79C258.051,722.757 257.916,722.741 257.78,722.741C257.584,722.741 257.399,722.783 257.223,722.867C257.047,722.951 256.894,723.081 256.763,723.256C256.632,723.432 256.528,723.656 256.45,723.927C256.371,724.199 256.332,724.524 256.332,724.903C256.332,725.59 256.447,726.114 256.675,726.473C256.904,726.832 257.241,727.012 257.686,727.012C257.827,727.012 259.132,726.99 259.23,726.896L259.233,723.356Z" style="fill:rgb(167,167,167);fill-rule:nonzero;stroke:rgb(159,159,159);stroke-width:0.16px;stroke-linecap:butt;"/>
                            </g>
                            <g transform="matrix(6.43606,0,0,6.43606,-1451.91,-4281.26)">
                                <path d="M262.808,725.143C262.812,725.452 262.845,725.724 262.905,725.96C262.966,726.197 263.06,726.394 263.189,726.552C263.318,726.71 263.485,726.831 263.69,726.913C263.895,726.995 264.148,727.036 264.449,727.036C264.594,727.036 265.308,726.994 265.821,726.771C266.307,726.558 266.803,726.106 266.806,726.293C266.813,726.675 266.816,727.291 266.816,727.291C266.699,727.467 266.058,727.766 265.867,727.856C265.676,727.946 265.458,728.014 265.214,728.061C264.97,728.108 264.691,728.131 264.379,728.131C263.398,728.131 262.675,727.861 262.208,727.32C261.741,726.779 261.508,725.981 261.508,724.926C261.508,724.43 261.558,723.98 261.657,723.576C261.757,723.171 261.917,722.825 262.138,722.536C262.358,722.247 262.646,722.023 263.002,721.865C263.357,721.707 263.793,721.627 264.308,721.627C264.766,721.627 265.155,721.696 265.477,721.832C265.8,721.969 266.062,722.163 266.266,722.413C266.469,722.663 266.617,722.963 266.711,723.315C266.805,723.666 266.851,724.055 266.851,724.481L266.851,725.143L262.808,725.143ZM265.603,724.217C265.603,723.706 265.496,723.316 265.281,723.048C265.066,722.781 264.728,722.647 264.267,722.647C264.033,722.647 263.833,722.681 263.667,722.749C263.501,722.818 263.362,722.918 263.251,723.051C263.14,723.184 263.051,723.348 262.984,723.543C262.918,723.739 262.867,723.963 262.832,724.217L265.603,724.217Z" style="fill:rgb(167,167,167);fill-rule:nonzero;stroke:rgb(159,159,159);stroke-width:0.16px;stroke-linecap:butt;"/>
                            </g>
                            <g transform="matrix(1,0,0,0.939456,-257.862,-405.211)">
                                <g transform="matrix(18,0,0,18,546.825,813.877)">
                                </g>
                                <text x="524.03px" y="813.877px" style="font-family:'ClearSans-Thin', 'Clear Sans Thin', sans-serif;font-weight:250;font-size:18px;fill:rgb(167,167,167);stroke:rgb(159,159,159);stroke-width:1.03px;stroke-linecap:butt;">T<tspan x="533.465px " y="813.877px ">M</tspan></text>
                            </g>
                        </g>
                        <g id="main-text" serif:id="main text" transform="matrix(6.43606,0,0,6.43606,-1436.65,-4468.86)">
                            <text x="235.227px" y="727.95px" style="font-family:'Helvetica-Bold', 'Helvetica';font-weight:700;font-size:9.944px;fill:rgb(167,167,167);stroke:rgb(159,159,159);stroke-width:0.16px;stroke-linecap:butt;">l<tspan x="237.52px 242.581px 247.642px 253.246px 255.539px 260.6px " y="727.95px 727.95px 727.95px 727.95px 727.95px 727.95px ">esbian</tspan></text>
                        </g>
                    </g>
                </g>
            </g>
        </g>
    </g>
    <defs>
        <linearGradient id="_Linear2" x1="0" y1="0" x2="1" y2="0" gradientUnits="userSpaceOnUse" gradientTransform="matrix(353,0,0,402.644,478,720.876)"><stop offset="0" style="stop-color:rgb(214,41,1);stop-opacity:1"/><stop offset="0.25" style="stop-color:rgb(254,155,85);stop-opacity:1"/><stop offset="0.5" style="stop-color:rgb(222,222,222);stop-opacity:1"/><stop offset="0.75" style="stop-color:rgb(212,98,166);stop-opacity:1"/><stop offset="1" style="stop-color:rgb(165,0,98);stop-opacity:1"/></linearGradient>
    </defs>
</svg>
