<?xml version="1.0" encoding="UTF-8" standalone="no"?>
<!DOCTYPE svg PUBLIC "-//W3C//DTD SVG 1.1//EN" "http://www.w3.org/Graphics/SVG/1.1/DTD/svg11.dtd">
<svg width="100%" height="100%" viewBox="0 0 486 644" version="1.1" xmlns="http://www.w3.org/2000/svg" xmlns:xlink="http://www.w3.org/1999/xlink" xml:space="preserve" xmlns:serif="http://www.serif.com/" style="fill-rule:evenodd;clip-rule:evenodd;stroke-linejoin:round;stroke-miterlimit:2;">
    <g transform="matrix(1,0,0,1,-2886,-2927)">
        <g id="trans-gradient-transparent.afdesign" transform="matrix(1.35903,0,0,1.35903,3129.24,3249.09)">
            <g transform="matrix(1,0,0,1,-178.622,-236.673)">
                <clipPath id="_clip1">
                    <rect x="0" y="0" width="357.245" height="473.346"/>
                </clipPath>
                <g clip-path="url(#_clip1)">
                    <g id="bg-gradient" transform="matrix(1.01203,0,0,0.887247,-483.748,-306.544)">
                        <path d="M831,377.712L831,846.788C831,864.566 818.346,879 802.76,879L506.24,879C490.654,879 478,864.566 478,846.788L478,377.712C478,359.934 490.654,345.5 506.24,345.5L802.76,345.5C818.346,345.5 831,359.934 831,377.712Z" style="fill:url(#_Linear2);"/>
                        <path d="M831,377.712L831,846.788C831,864.566 818.346,879 802.76,879L506.24,879C490.654,879 478,864.566 478,846.788L478,377.712C478,359.934 490.654,345.5 506.24,345.5L802.76,345.5C818.346,345.5 831,359.934 831,377.712ZM829.992,377.712C829.992,360.568 817.79,346.65 802.76,346.65L506.24,346.65C491.21,346.65 479.008,360.568 479.008,377.712L479.008,846.788C479.008,863.932 491.21,877.85 506.24,877.85L802.76,877.85C817.79,877.85 829.992,863.932 829.992,846.788L829.992,377.712Z" style="fill:rgb(28,20,20);"/>
                    </g>
                    <g id="template-transparent">
                        <g id="bg-outline" transform="matrix(1.01203,0,0,0.887247,-483.748,-306.544)">
                            <path d="M831,377.712L831,846.788C831,864.566 818.346,879 802.76,879L506.24,879C490.654,879 478,864.566 478,846.788L478,377.712C478,359.934 490.654,345.5 506.24,345.5L802.76,345.5C818.346,345.5 831,359.934 831,377.712ZM829.992,377.712C829.992,360.568 817.79,346.65 802.76,346.65L506.24,346.65C491.21,346.65 479.008,360.568 479.008,377.712L479.008,846.788C479.008,863.932 491.21,877.85 506.24,877.85L802.76,877.85C817.79,877.85 829.992,863.932 829.992,846.788L829.992,377.712Z" style="fill:rgb(28,20,20);"/>
                        </g>
                        <g id="foreground" transform="matrix(1.01203,0,0,0.846298,-483.748,-270.55)">
                            <path d="M831,381.608L831,845.23C831,863.868 818.346,879 802.76,879L506.24,879C490.654,879 478,863.868 478,845.23L478,454.415L545.911,455.275L630.02,382.628L831,381.608ZM659.56,737.863C659.56,735.991 659.188,734.654 658.443,733.852C657.697,733.05 656.468,732.649 654.754,732.649C653.039,732.649 651.822,733.058 651.102,733.875C650.381,734.691 650.021,736.021 650.021,737.863C650.021,739.556 650.363,740.848 651.046,741.739C651.729,742.631 652.965,743.076 654.754,743.076C656.393,743.076 657.604,742.697 658.387,741.94C659.169,741.182 659.56,739.823 659.56,737.863ZM567.827,737.863C567.827,735.991 567.454,734.654 566.709,733.852C565.963,733.05 564.734,732.649 563.02,732.649C561.306,732.649 560.088,733.058 559.368,733.875C558.647,734.691 558.287,736.021 558.287,737.863C558.287,739.556 558.629,740.848 559.312,741.739C559.995,742.631 561.231,743.076 563.02,743.076C564.659,743.076 565.87,742.697 566.653,741.94C567.435,741.182 567.827,739.823 567.827,737.863ZM616.649,538.305C616.972,538.305 617.394,538.32 617.916,538.349C618.438,538.379 619.034,538.438 619.705,538.528L619.705,525.516C619.233,525.486 618.928,525.464 618.792,525.449C618.655,525.434 618.487,525.427 618.289,525.427C615.109,525.427 612.525,526.422 610.538,528.412C609.321,529.601 607.892,531.814 606.253,535.052L606.253,526.585L596.117,526.585L596.117,575.156L606.812,575.156L606.812,551.94C606.812,548.049 607.222,545.167 608.041,543.295C609.507,539.968 612.376,538.305 616.649,538.305ZM650.804,796.905L658.815,796.905L658.815,750.161L650.804,750.161L650.804,796.905ZM755.85,568.468L755.85,590.102C755.85,590.102 798.339,568.468 798.339,517.127C798.339,434.948 697.81,430.859 643.144,449.716C590.029,468.037 578.977,482.208 578.977,482.208L578.977,489.297C578.151,491.826 669.605,433.753 748.239,461.888C759.676,465.98 795.463,489.297 780.553,538.396C773.22,562.545 755.85,568.468 755.85,568.468ZM600.367,796.905L608.379,796.905L608.379,765.713C608.379,763.01 608.192,760.611 607.82,758.516C607.447,756.422 606.82,754.655 605.938,753.214C605.056,751.773 603.882,750.681 602.417,749.939C600.951,749.196 599.125,748.825 596.939,748.825C595.697,748.825 593.228,748.711 591.948,748.777C580.085,749.387 575.683,751.778 575.683,751.778L575.513,796.905L583.524,796.905C583.524,796.905 583.301,766.371 583.338,760.157C583.359,756.758 593.846,757.558 594.666,757.558C595.908,757.558 596.902,757.781 597.647,758.227C598.392,758.672 598.97,759.4 599.38,760.41C599.79,761.42 600.057,762.735 600.181,764.354C600.305,765.973 600.367,767.941 600.367,770.258L600.367,796.905ZM559.07,796.905L567.081,796.905L567.081,750.161L559.07,750.161L559.07,796.905ZM714.692,775.561L740.404,775.561L740.404,770.525C740.404,767.287 740.106,764.332 739.509,761.658C738.913,758.984 737.969,756.697 736.677,754.796C735.386,752.894 733.715,751.424 731.666,750.384C729.616,749.344 727.138,748.825 724.232,748.825C720.952,748.825 718.182,749.426 715.922,750.629C713.661,751.832 711.829,753.533 710.425,755.731C709.022,757.93 708.003,760.566 707.37,763.641C706.736,766.715 706.42,770.139 706.42,773.912C706.42,781.933 707.904,788 710.873,792.115C713.841,796.229 718.443,798.286 724.679,798.286C726.666,798.286 728.436,798.108 729.989,797.752C731.541,797.395 732.926,796.875 734.144,796.192C735.361,795.509 739.432,793.235 740.177,791.898C740.177,791.898 740.16,787.211 740.115,784.309C740.094,782.882 736.94,786.325 733.85,787.938C730.591,789.64 726.044,789.954 725.126,789.954C723.213,789.954 721.604,789.642 720.3,789.018C718.996,788.394 717.934,787.481 717.114,786.277C716.294,785.074 715.692,783.574 715.307,781.777C714.922,779.98 714.717,777.908 714.692,775.561ZM732.467,768.52L714.841,768.52C715.065,766.589 715.388,764.881 715.81,763.396C716.232,761.91 716.797,760.663 717.505,759.653C718.213,758.643 719.095,757.878 720.151,757.358C721.207,756.838 722.48,756.578 723.971,756.578C726.902,756.578 729.051,757.595 730.417,759.63C731.784,761.665 732.467,764.629 732.467,768.52ZM699.963,796.905L699.963,730.555L691.952,730.555L691.952,753.815C690.536,752.3 688.89,751.09 687.015,750.184C685.139,749.278 683.232,748.825 681.295,748.825C678.363,748.825 675.879,749.53 673.842,750.941C671.805,752.352 670.147,754.224 668.867,756.556C667.588,758.888 666.663,761.561 666.091,764.577C665.52,767.592 665.234,770.704 665.234,773.912C665.234,777.477 665.52,780.745 666.091,783.715C666.663,786.686 667.557,789.256 668.774,791.424C669.991,793.593 671.544,795.279 673.432,796.482C675.32,797.685 677.581,798.333 680.214,798.286C700.391,797.932 699.963,796.905 699.963,796.905ZM691.952,761.97L691.933,788.891C691.312,789.604 683.009,789.775 682.114,789.775C679.282,789.775 677.14,788.409 675.686,785.676C674.233,782.943 673.507,778.962 673.507,773.734C673.507,770.852 673.755,768.379 674.252,766.314C674.749,764.25 675.413,762.549 676.245,761.212C677.078,759.875 678.053,758.888 679.171,758.249C680.288,757.61 681.468,757.291 682.711,757.291C683.58,757.291 684.437,757.417 685.282,757.67C686.126,757.922 686.946,758.264 687.741,758.695C688.536,759.125 689.288,759.623 689.996,760.187C690.704,760.752 691.356,761.346 691.952,761.97ZM547.619,523.538L547.619,508.992C547.619,508.992 523.855,531.503 515.999,570.15C513.656,581.677 512.705,608.615 529.833,633.429C542.51,651.795 574.088,665.442 595.049,669.032C615.746,672.576 651.26,672.295 681.469,664.466C716.765,655.318 748.207,633.429 748.207,633.429L748.207,608.615C749.764,603.847 695.359,650.512 611.55,645.477C580.941,643.638 552.11,640.422 534.382,608.615C521.512,585.525 532.514,554.102 540.702,536.628C544.456,528.617 547.619,523.538 547.619,523.538ZM623.851,531.843C622.087,534.577 621.094,538.067 620.87,542.315L631.117,542.315C631.366,540.444 631.863,538.958 632.608,537.859C633.651,536.374 635.427,535.631 637.937,535.631C640.172,535.631 641.868,536.01 643.023,536.767C644.178,537.525 644.756,538.899 644.756,540.889C644.756,542.523 643.998,543.726 642.483,544.499C641.638,544.944 640.234,545.316 638.272,545.613L634.657,546.147C630.558,546.771 627.453,547.811 625.342,549.267C621.491,551.94 619.566,556.263 619.566,562.234C619.566,566.838 620.764,570.396 623.162,572.906C625.559,575.416 628.596,576.671 632.272,576.671C635.154,576.671 637.738,575.884 640.023,574.309C641.936,572.973 643.625,571.354 645.091,569.452C645.166,570.552 645.265,571.532 645.389,572.393C645.513,573.255 645.737,574.176 646.06,575.156L657.611,575.156L657.611,573.285C656.916,572.898 656.394,572.408 656.046,571.814C655.699,571.22 655.487,570.091 655.413,568.427C655.363,566.229 655.338,564.358 655.338,562.813L655.338,540.533C655.338,534.68 653.612,530.7 650.159,528.591C646.706,526.481 642.756,525.427 638.309,525.427C631.478,525.427 626.658,527.566 623.851,531.843ZM631.751,565.977C630.732,565.026 630.223,563.466 630.223,561.298C630.223,558.862 631.043,557.065 632.682,555.906C633.651,555.223 635.254,554.644 637.489,554.168L639.874,553.633C641.067,553.366 642.004,553.076 642.688,552.765C643.371,552.453 644.048,552.044 644.718,551.539L644.718,556.263C644.644,560.511 643.644,563.437 641.719,565.041C639.793,566.645 637.688,567.447 635.403,567.447C633.962,567.447 632.744,566.957 631.751,565.977ZM760.915,744.349L761.662,744.349L761.662,730.846L760.498,730.846L756.946,739.236L753.35,730.846L752.195,730.846L752.195,744.349L752.942,744.349L752.942,731.743L756.625,740.368L757.198,740.368L760.915,731.743L760.915,744.349ZM732.158,528.813C728.953,526.407 724.817,525.204 719.749,525.204C714.408,525.204 710.266,526.816 707.322,530.039C704.378,533.262 702.906,537.116 702.906,541.602C702.906,545.405 703.85,548.316 705.738,550.336C707.626,552.386 710.868,554.094 715.464,555.46C721.849,557.273 725.538,558.55 726.531,559.293C727.525,560.035 728.022,561.12 728.022,562.546C728.022,564.031 727.407,565.145 726.177,565.888C724.948,566.63 723.289,567.002 721.203,567.002C717.65,567.002 715.216,566.155 713.899,564.462C713.154,563.511 712.669,561.907 712.446,559.649L701.677,559.649C701.677,564.64 703.198,568.747 706.241,571.97C709.285,575.193 713.998,576.805 720.383,576.805C726.643,576.805 731.27,575.282 734.263,572.237C737.257,569.192 738.754,565.264 738.754,560.451C738.754,556.797 737.71,553.752 735.623,551.316C733.512,548.91 730.345,547.113 726.121,545.925C719.787,544.261 716.098,543.088 715.054,542.404C714.011,541.751 713.489,540.696 713.489,539.24C713.489,538.082 713.98,537.072 714.961,536.21C715.942,535.349 717.588,534.918 719.898,534.918C722.706,534.918 724.693,535.78 725.861,537.503C726.482,538.453 726.867,539.746 727.016,541.379L737.636,541.379C737.164,535.438 735.338,531.249 732.158,528.813ZM593.014,566.11C592.666,566.14 592.312,566.162 591.952,566.177C591.592,566.192 591.25,566.199 590.927,566.199C588.766,566.199 587.474,565.954 587.052,565.464C586.63,564.974 586.419,563.734 586.419,561.743L586.419,536.077L593.014,536.077L593.014,527.031L586.419,527.031L586.419,513.485L575.91,513.485L575.91,527.031L570.246,527.031L570.246,536.077L575.91,536.077L575.91,565.977C575.91,569.007 576.507,571.25 577.699,572.705C579.537,574.993 582.966,576.032 587.984,575.825L593.014,575.602L593.014,566.11ZM680.278,535.988C683.209,535.988 685.196,537.235 686.24,539.731C686.811,541.097 687.097,543.058 687.097,545.613L687.097,575.156L697.978,575.156L697.978,542.449C697.978,536.359 696.642,531.999 693.972,529.37C691.301,526.741 687.867,525.427 683.669,525.427C680.315,525.427 677.545,526.407 675.359,528.368C674.142,529.467 672.85,531.264 671.483,533.76L671.483,526.674L661.236,526.674L661.236,575.156L671.819,575.156L671.819,548.866C671.819,545.865 672.167,543.399 672.862,541.469C674.204,537.815 676.675,535.988 680.278,535.988ZM644.757,783.938C644.757,781.502 644.416,779.46 643.733,777.811C643.049,776.162 642.074,774.773 640.807,773.645C639.54,772.516 637.994,771.565 636.168,770.793C634.342,770.02 632.299,769.293 630.038,768.609C628.697,768.223 627.554,767.844 626.61,767.473C625.666,767.102 624.902,766.678 624.318,766.203C623.735,765.728 623.312,765.193 623.051,764.599C622.791,764.005 622.66,763.277 622.66,762.415C622.66,760.574 623.281,759.17 624.523,758.204C625.765,757.239 627.43,756.756 629.517,756.756C630.61,756.756 631.597,756.897 632.479,757.18C633.361,757.462 634.156,757.841 634.864,758.316C635.572,758.791 636.187,759.341 636.708,759.965C637.23,760.588 637.712,761.284 638.05,761.881C638.786,763.179 644.959,758.184 644.161,756.935C643.418,755.771 642.795,754.61 641.851,753.615C640.907,752.62 639.82,751.766 638.59,751.053C637.361,750.34 635.994,749.79 634.491,749.404C632.988,749.018 631.38,748.825 629.666,748.825C627.206,748.825 625.051,749.181 623.201,749.894C621.35,750.607 619.797,751.587 618.543,752.835C617.288,754.083 616.35,755.553 615.729,757.246C615.108,758.94 614.798,760.782 614.798,762.772C614.798,765.267 615.17,767.354 615.916,769.033C616.661,770.711 617.648,772.107 618.878,773.221C620.108,774.335 621.53,775.234 623.145,775.917C624.759,776.6 626.449,777.209 628.212,777.744C629.777,778.19 631.113,778.628 632.218,779.059C633.324,779.489 634.224,779.95 634.92,780.44C635.615,780.93 636.125,781.487 636.448,782.111C636.771,782.735 636.932,783.492 636.932,784.384C636.932,785.542 636.715,786.508 636.28,787.28C635.845,788.052 635.274,788.669 634.566,789.129C633.858,789.59 633.044,789.909 632.125,790.087C631.206,790.266 630.262,790.355 629.293,790.355C627.331,790.355 625.567,789.954 624.002,789.152C622.437,788.35 620.979,786.418 620.052,785.141C618.949,783.623 613.229,788.73 613.941,790.043C614.617,791.291 615.301,792.33 616.232,793.34C617.164,794.35 618.276,795.219 619.567,795.947C620.859,796.675 622.331,797.247 623.983,797.663C625.635,798.079 627.48,798.286 629.517,798.286C631.529,798.286 633.454,798.027 635.292,797.507C637.131,796.987 638.752,796.148 640.155,794.989C641.559,793.83 642.677,792.345 643.509,790.533C644.341,788.721 644.757,786.523 644.757,783.938ZM746.432,731.597L750.697,731.597L750.697,730.846L741.413,730.846L741.413,731.597L745.686,731.597L745.686,744.349L746.432,744.349L746.432,731.597Z"/>
                            <path d="M831,381.608L831,845.23C831,863.868 818.346,879 802.76,879L506.24,879C490.654,879 478,863.868 478,845.23L478,454.415L545.911,455.275L630.02,382.628L831,381.608ZM829.683,383.19L630.449,384.202L546.331,456.856L479.317,456.007L479.317,845.23C479.317,862.999 491.381,877.425 506.24,877.425L802.76,877.425C817.619,877.425 829.683,862.999 829.683,845.23L829.683,383.19ZM649.486,748.586L660.133,748.586L660.133,798.481L649.486,798.481L649.486,748.586ZM650.804,796.905L658.815,796.905L658.815,750.161L650.804,750.161L650.804,796.905ZM755.489,566.953C755.489,566.953 772.231,561.187 779.315,537.858C793.826,490.072 758.993,467.38 747.862,463.398C677.459,438.208 596.736,482.569 581.892,489.843C580.907,490.325 580.192,490.652 579.77,490.802C579.606,490.86 579.471,490.898 579.366,490.919L578.974,490.951L578.592,490.868L578.206,490.631L577.98,490.381L577.792,490.041L577.655,489.385L577.75,488.724L577.66,489.297L577.66,481.587L578.014,481.133C578.014,481.133 589.134,466.706 642.778,448.202C675.825,436.803 725.506,433.766 759.963,451.013C783.263,462.675 799.657,483.535 799.657,517.127C799.657,569.471 756.366,591.552 756.366,591.552L754.533,592.485L754.533,567.279L755.489,566.953ZM580.295,489.18L580.295,489.427C580.301,489.341 580.301,489.259 580.295,489.18ZM755.85,568.468L755.85,590.102C755.85,590.102 798.339,568.468 798.339,517.127C798.339,434.948 697.81,430.859 643.144,449.716C590.029,468.037 578.977,482.208 578.977,482.208L578.977,489.297C578.151,491.826 669.605,433.753 748.239,461.888C759.676,465.98 795.463,489.297 780.553,538.396C773.22,562.545 755.85,568.468 755.85,568.468ZM716.058,777.136C716.137,778.699 716.311,780.116 716.583,781.386C716.916,782.94 717.427,784.242 718.136,785.282C718.817,786.283 719.705,787.036 720.79,787.555C721.961,788.115 723.408,788.378 725.126,788.378C725.988,788.378 730.261,788.093 733.323,786.495C734.998,785.62 736.688,784.181 737.858,783.335C738.558,782.829 739.141,782.516 739.513,782.434L740.183,782.432L740.476,782.536L740.778,782.734L741.046,783.023L741.241,783.363L741.374,783.766L741.433,784.281C741.477,787.191 741.494,791.891 741.494,791.891L741.496,792.372L741.273,792.772C740.983,793.292 740.335,793.963 739.485,794.613C737.906,795.822 735.583,797.124 734.703,797.618C733.395,798.353 731.906,798.916 730.237,799.299C728.612,799.672 726.759,799.862 724.679,799.862C717.98,799.862 713.064,797.564 709.875,793.144C706.735,788.792 705.102,782.396 705.102,773.912C705.102,770.001 705.434,766.452 706.091,763.264C706.771,759.963 707.871,757.136 709.378,754.775C710.913,752.371 712.914,750.506 715.386,749.19C717.793,747.909 720.74,747.249 724.232,747.249C727.34,747.249 729.988,747.822 732.18,748.934C734.439,750.08 736.276,751.707 737.7,753.802C739.103,755.867 740.135,758.348 740.782,761.252C741.406,764.048 741.721,767.139 741.721,770.525L741.721,777.136L716.058,777.136ZM714.692,775.561L740.404,775.561L740.404,770.525C740.404,767.287 740.106,764.332 739.509,761.658C738.913,758.984 737.969,756.697 736.677,754.796C735.386,752.894 733.715,751.424 731.666,750.384C729.616,749.344 727.138,748.825 724.232,748.825C720.952,748.825 718.182,749.426 715.922,750.629C713.661,751.832 711.829,753.533 710.425,755.731C709.022,757.93 708.003,760.566 707.37,763.641C706.736,766.715 706.42,770.139 706.42,773.912C706.42,781.933 707.904,788 710.873,792.115C713.841,796.229 718.443,798.286 724.679,798.286C726.666,798.286 728.436,798.108 729.989,797.752C731.541,797.395 732.926,796.875 734.144,796.192C735.361,795.509 739.432,793.235 740.177,791.898C740.177,791.898 740.16,787.211 740.115,784.309C740.094,782.882 736.94,786.325 733.85,787.938C730.591,789.64 726.044,789.954 725.126,789.954C723.213,789.954 721.604,789.642 720.3,789.018C718.996,788.394 717.934,787.481 717.114,786.277C716.294,785.074 715.692,783.574 715.307,781.777C714.922,779.98 714.717,777.908 714.692,775.561ZM732.467,768.52L714.841,768.52C715.065,766.589 715.388,764.881 715.81,763.396C716.232,761.91 716.797,760.663 717.505,759.653C718.213,758.643 719.095,757.878 720.151,757.358C721.207,756.838 722.48,756.578 723.971,756.578C726.902,756.578 729.051,757.595 730.417,759.63C731.784,761.665 732.467,764.629 732.467,768.52ZM731.108,766.945C730.96,764.253 730.41,762.136 729.39,760.617C728.247,758.915 726.422,758.154 723.971,758.154C722.677,758.154 721.569,758.363 720.653,758.815C719.8,759.234 719.087,759.849 718.515,760.665C717.904,761.537 717.422,762.62 717.057,763.903C716.795,764.826 716.574,765.84 716.394,766.945L731.108,766.945ZM732.869,527.487C736.357,530.159 738.429,534.712 738.947,541.23L739.084,542.955L725.834,542.955L725.706,541.55C725.589,540.265 725.316,539.235 724.826,538.478C723.864,537.073 722.197,536.494 719.898,536.494C717.961,536.494 716.564,536.758 715.741,537.48C715.157,537.993 714.807,538.551 714.807,539.24C714.807,540.05 715.085,540.645 715.676,541.015L715.687,541.022C716.696,541.683 720.275,542.776 726.414,544.388L726.423,544.391C730.923,545.657 734.282,547.612 736.538,550.182L736.544,550.189C738.889,552.927 740.071,556.344 740.071,560.451C740.071,565.755 738.416,570.082 735.117,573.437C731.935,576.674 727.037,578.38 720.383,578.38C713.594,578.38 708.604,576.577 705.368,573.149C702.033,569.617 700.359,565.119 700.359,559.649L700.359,558.074L713.616,558.074L713.754,559.464C713.935,561.289 714.258,562.615 714.862,563.386L714.864,563.389C716,564.85 718.137,565.426 721.203,565.426C723.038,565.426 724.502,565.134 725.583,564.481C726.306,564.045 726.704,563.419 726.704,562.546C726.704,561.707 726.417,561.065 725.833,560.629C724.876,559.913 721.309,558.739 715.153,556.991L715.146,556.989C710.278,555.542 706.862,553.68 704.859,551.509C702.713,549.212 701.589,545.925 701.589,541.602C701.589,536.668 703.195,532.422 706.432,528.877C709.591,525.419 714.019,523.629 719.749,523.629C725.106,523.629 729.471,524.936 732.864,527.483L732.869,527.487ZM732.158,528.813C728.953,526.407 724.817,525.204 719.749,525.204C714.408,525.204 710.266,526.816 707.322,530.039C704.378,533.262 702.906,537.116 702.906,541.602C702.906,545.405 703.85,548.316 705.738,550.336C707.626,552.386 710.868,554.094 715.464,555.46C721.849,557.273 725.538,558.55 726.531,559.293C727.525,560.035 728.022,561.12 728.022,562.546C728.022,564.031 727.407,565.145 726.177,565.888C724.948,566.63 723.289,567.002 721.203,567.002C717.65,567.002 715.216,566.155 713.899,564.462C713.154,563.511 712.669,561.907 712.446,559.649L701.677,559.649C701.677,564.64 703.198,568.747 706.241,571.97C709.285,575.193 713.998,576.805 720.383,576.805C726.643,576.805 731.27,575.282 734.263,572.237C737.257,569.192 738.754,565.264 738.754,560.451C738.754,556.797 737.71,553.752 735.623,551.316C733.512,548.91 730.345,547.113 726.121,545.925C719.787,544.261 716.098,543.088 715.054,542.404C714.011,541.751 713.489,540.696 713.489,539.24C713.489,538.082 713.98,537.072 714.961,536.21C715.942,535.349 717.588,534.918 719.898,534.918C722.706,534.918 724.693,535.78 725.861,537.503C726.482,538.453 726.867,539.746 727.016,541.379L737.636,541.379C737.164,535.438 735.338,531.249 732.158,528.813ZM569.144,737.863C569.144,740.437 568.509,742.17 567.482,743.165C566.517,744.099 565.042,744.652 563.02,744.652C560.744,744.652 559.21,743.938 558.341,742.804C557.466,741.663 556.97,740.031 556.97,737.863C556.97,735.476 557.528,733.79 558.461,732.731C559.366,731.705 560.866,731.074 563.02,731.074C565.155,731.074 566.662,731.682 567.59,732.681C568.561,733.726 569.144,735.426 569.144,737.863ZM567.827,737.863C567.827,735.991 567.454,734.654 566.709,733.852C565.963,733.05 564.734,732.649 563.02,732.649C561.306,732.649 560.088,733.058 559.368,733.875C558.647,734.691 558.287,736.021 558.287,737.863C558.287,739.556 558.629,740.848 559.312,741.739C559.995,742.631 561.231,743.076 563.02,743.076C564.659,743.076 565.87,742.697 566.653,741.94C567.435,741.182 567.827,739.823 567.827,737.863ZM584.655,760.273C584.621,766.715 584.842,796.891 584.842,796.891L584.853,798.481L574.189,798.481L574.369,750.761L575.138,750.343C575.138,750.343 579.667,747.832 591.891,747.203C593.186,747.136 595.683,747.249 596.939,747.249C599.331,747.249 601.327,747.675 602.931,748.488C604.626,749.347 605.981,750.616 607.001,752.283C607.984,753.889 608.693,755.854 609.108,758.189C609.498,760.378 609.696,762.886 609.696,765.713L609.696,798.481L599.05,798.481L599.05,770.258C599.05,767.997 598.99,766.077 598.869,764.498C598.762,763.104 598.547,761.968 598.194,761.098C597.923,760.428 597.552,759.931 597.058,759.636C596.461,759.279 595.66,759.134 594.666,759.134C594.112,759.134 588.987,758.728 585.956,759.626C585.54,759.749 585.171,759.893 584.881,760.083C584.805,760.132 584.705,760.225 584.655,760.273ZM600.367,796.905L608.379,796.905L608.379,765.713C608.379,763.01 608.192,760.611 607.82,758.516C607.447,756.422 606.82,754.655 605.938,753.214C605.056,751.773 603.882,750.681 602.417,749.939C600.951,749.196 599.125,748.825 596.939,748.825C595.697,748.825 593.228,748.711 591.948,748.777C580.085,749.387 575.683,751.778 575.683,751.778L575.513,796.905L583.524,796.905C583.524,796.905 583.301,766.371 583.338,760.157C583.359,756.758 593.846,757.558 594.666,757.558C595.908,757.558 596.902,757.781 597.647,758.227C598.392,758.672 598.97,759.4 599.38,760.41C599.79,761.42 600.057,762.735 600.181,764.354C600.305,765.973 600.367,767.941 600.367,770.258L600.367,796.905ZM621.022,534.503C621.505,533.183 622.103,531.974 622.811,530.876L622.815,530.871C625.831,526.275 630.969,523.851 638.309,523.851C642.982,523.851 647.13,524.971 650.758,527.188C654.633,529.554 656.656,533.966 656.656,540.533L656.656,562.813C656.656,564.341 656.68,566.191 656.73,568.372C656.786,569.608 656.866,570.467 657.126,570.911C657.354,571.301 657.71,571.602 658.166,571.856L658.929,572.279L658.929,576.732L645.163,576.732L644.834,575.734C644.489,574.685 644.248,573.696 644.107,572.77C643.054,573.846 641.913,574.814 640.684,575.672L640.681,575.675C638.201,577.383 635.399,578.247 632.272,578.247C628.242,578.247 624.921,576.843 622.294,574.091C619.625,571.297 618.248,567.359 618.248,562.234C618.248,555.624 620.418,550.864 624.682,547.903L624.684,547.902C626.908,546.368 630.173,545.242 634.493,544.584L638.108,544.049C639.897,543.779 641.181,543.463 641.958,543.053L641.966,543.049C642.901,542.573 643.438,541.897 643.438,540.889C643.438,539.589 643.144,538.644 642.389,538.149C641.38,537.487 639.89,537.207 637.937,537.207C635.924,537.207 634.463,537.676 633.619,538.869C633.008,539.78 632.623,541.019 632.419,542.562L632.242,543.891L619.467,543.891L619.555,542.216C619.593,541.496 619.652,540.796 619.732,540.116L619.559,540.093C618.92,540.008 618.351,539.951 617.853,539.923C617.358,539.895 616.956,539.88 616.649,539.88C612.982,539.88 610.466,541.173 609.208,544.028C608.459,545.739 608.129,548.383 608.129,551.94L608.129,576.732L594.8,576.732L594.8,525.01L607.57,525.01C607.57,525.01 607.57,529.917 607.571,529.916C608.338,528.738 609.049,527.833 609.699,527.198C611.905,524.992 614.761,523.851 618.289,523.851C618.535,523.851 618.742,523.862 618.911,523.88C619.04,523.894 619.328,523.915 619.774,523.943L621.022,524.021L621.022,534.503ZM623.851,531.843C622.087,534.577 621.094,538.067 620.87,542.315L631.117,542.315C631.366,540.444 631.863,538.958 632.608,537.859C633.651,536.374 635.427,535.631 637.937,535.631C640.172,535.631 641.868,536.01 643.023,536.767C644.178,537.525 644.756,538.899 644.756,540.889C644.756,542.523 643.998,543.726 642.483,544.499C641.638,544.944 640.234,545.316 638.272,545.613L634.657,546.147C630.558,546.771 627.453,547.811 625.342,549.267C621.491,551.94 619.566,556.263 619.566,562.234C619.566,566.838 620.764,570.396 623.162,572.906C625.559,575.416 628.596,576.671 632.272,576.671C635.154,576.671 637.738,575.884 640.023,574.309C641.936,572.973 643.625,571.354 645.091,569.452C645.166,570.552 645.265,571.532 645.389,572.393C645.513,573.255 645.737,574.176 646.06,575.156L657.611,575.156L657.611,573.285C656.916,572.898 656.394,572.408 656.046,571.814C655.699,571.22 655.487,570.091 655.413,568.427C655.363,566.229 655.338,564.358 655.338,562.813L655.338,540.533C655.338,534.68 653.612,530.7 650.159,528.591C646.706,526.481 642.756,525.427 638.309,525.427C631.478,525.427 626.658,527.566 623.851,531.843ZM631.751,565.977C630.732,565.026 630.223,563.466 630.223,561.298C630.223,558.862 631.043,557.065 632.682,555.906C633.651,555.223 635.254,554.644 637.489,554.168L639.874,553.633C641.067,553.366 642.004,553.076 642.688,552.765C643.371,552.453 644.048,552.044 644.718,551.539L644.718,556.263C644.644,560.511 643.644,563.437 641.719,565.041C639.793,566.645 637.688,567.447 635.403,567.447C633.962,567.447 632.744,566.957 631.751,565.977ZM632.589,564.761C633.353,565.515 634.295,565.872 635.403,565.872C637.416,565.872 639.27,565.161 640.966,563.748C642.6,562.386 643.336,559.849 643.401,556.245C643.401,556.245 643.401,554.122 643.401,554.122C643.32,554.161 643.239,554.199 643.158,554.236C642.419,554.574 641.406,554.893 640.117,555.182L637.726,555.718L637.72,555.719C635.692,556.15 634.231,556.643 633.352,557.263C632.13,558.127 631.541,559.481 631.541,561.298C631.541,562.873 631.822,564.044 632.575,564.748L632.589,564.761ZM616.649,538.305C616.972,538.305 617.394,538.32 617.916,538.349C618.438,538.379 619.034,538.438 619.705,538.528L619.705,525.516C619.233,525.486 618.928,525.464 618.792,525.449C618.655,525.434 618.487,525.427 618.289,525.427C615.109,525.427 612.525,526.422 610.538,528.412C609.321,529.601 607.892,531.814 606.253,535.052L606.253,526.585L596.117,526.585L596.117,575.156L606.812,575.156L606.812,551.94C606.812,548.049 607.222,545.167 608.041,543.295C609.507,539.968 612.376,538.305 616.649,538.305ZM557.752,748.586L568.399,748.586L568.399,798.481L557.752,798.481L557.752,748.586ZM559.07,796.905L567.081,796.905L567.081,750.161L559.07,750.161L559.07,796.905ZM660.878,737.863C660.878,740.437 660.243,742.17 659.216,743.165C658.25,744.099 656.776,744.652 654.754,744.652C652.478,744.652 650.944,743.938 650.075,742.804C649.2,741.663 648.704,740.031 648.704,737.863C648.704,735.476 649.262,733.79 650.195,732.731C651.1,731.705 652.6,731.074 654.754,731.074C656.889,731.074 658.395,731.682 659.324,732.681C660.294,733.726 660.878,735.426 660.878,737.863ZM659.56,737.863C659.56,735.991 659.188,734.654 658.443,733.852C657.697,733.05 656.468,732.649 654.754,732.649C653.039,732.649 651.822,733.058 651.102,733.875C650.381,734.691 650.021,736.021 650.021,737.863C650.021,739.556 650.363,740.848 651.046,741.739C651.729,742.631 652.965,743.076 654.754,743.076C656.393,743.076 657.604,742.697 658.387,741.94C659.169,741.182 659.56,739.823 659.56,737.863ZM680.278,537.563C677.272,537.563 675.191,539.05 674.07,542.097C673.435,543.863 673.136,546.122 673.136,548.866L673.136,576.732L659.919,576.732L659.919,525.099L672.801,525.099C672.801,525.099 672.801,529.079 672.801,529.078C673.406,528.281 673.994,527.626 674.567,527.109L674.568,527.107C676.965,524.958 679.993,523.851 683.669,523.851C688.212,523.851 691.919,525.309 694.809,528.154C697.737,531.036 699.295,535.773 699.295,542.449L699.295,576.732L685.779,576.732L685.779,545.613C685.779,543.367 685.564,541.636 685.061,540.435C684.232,538.452 682.608,537.563 680.278,537.563ZM680.278,535.988C683.209,535.988 685.196,537.235 686.24,539.731C686.811,541.097 687.097,543.058 687.097,545.613L687.097,575.156L697.978,575.156L697.978,542.449C697.978,536.359 696.642,531.999 693.972,529.37C691.301,526.741 687.867,525.427 683.669,525.427C680.315,525.427 677.545,526.407 675.359,528.368C674.142,529.467 672.85,531.264 671.483,533.76L671.483,526.674L661.236,526.674L661.236,575.156L671.819,575.156L671.819,548.866C671.819,545.865 672.167,543.399 672.862,541.469C674.204,537.815 676.675,535.988 680.278,535.988ZM548.676,524.479C548.676,524.479 545.556,529.493 541.851,537.399C537.813,546.017 533.073,558.073 530.937,570.825C528.839,583.347 529.244,596.557 535.478,607.741C552.956,639.099 581.439,642.09 611.616,643.903C686.739,648.416 738.134,611.184 746.532,607.162C747.188,606.848 747.67,606.714 747.955,606.699L748.519,606.778L749.041,607.113L749.37,607.584L749.533,608.125L749.547,608.658L749.524,608.763L749.524,634.334L748.87,634.79C748.87,634.79 717.247,656.805 681.748,666.005C651.376,673.877 615.671,674.155 594.862,670.591C573.624,666.954 541.662,653.041 528.817,634.432C511.32,609.083 512.325,581.553 514.719,569.778C522.687,530.58 546.801,507.757 546.801,507.757L548.936,505.734L548.936,524.06L548.676,524.479ZM547.619,523.538L547.619,508.992C547.619,508.992 523.855,531.503 515.999,570.15C513.656,581.677 512.705,608.615 529.833,633.429C542.51,651.795 574.088,665.442 595.049,669.032C615.746,672.576 651.26,672.295 681.469,664.466C716.765,655.318 748.207,633.429 748.207,633.429L748.207,608.615C749.764,603.847 695.359,650.512 611.55,645.477C580.941,643.638 552.11,640.422 534.382,608.615C521.512,585.525 532.514,554.102 540.702,536.628C544.456,528.617 547.619,523.538 547.619,523.538ZM587.978,564.294C588.1,564.339 588.338,564.421 588.544,564.46C589.138,564.572 589.933,564.624 590.927,564.624C591.236,564.624 591.563,564.617 591.907,564.603C592.251,564.588 592.588,564.567 592.92,564.539L594.332,564.418L594.332,577.12L588.031,577.399L588.029,577.399C582.51,577.628 578.775,576.315 576.752,573.8C575.363,572.1 574.593,569.511 574.593,565.977L574.593,537.652L568.929,537.652L568.929,525.455C568.929,525.455 574.593,525.455 574.593,525.455L574.593,511.909L587.736,511.909C587.736,511.909 587.736,525.455 587.736,525.455L594.332,525.455L594.332,537.652L587.736,537.652L587.736,561.743C587.736,562.609 587.776,563.313 587.868,563.852C587.894,564.004 587.946,564.188 587.978,564.294ZM593.014,566.11C592.666,566.14 592.312,566.162 591.952,566.177C591.592,566.192 591.25,566.199 590.927,566.199C588.766,566.199 587.474,565.954 587.052,565.464C586.63,564.974 586.419,563.734 586.419,561.743L586.419,536.077L593.014,536.077L593.014,527.031L586.419,527.031L586.419,513.485L575.91,513.485L575.91,527.031L570.246,527.031L570.246,536.077L575.91,536.077L575.91,565.977C575.91,569.007 576.507,571.25 577.699,572.705C579.537,574.993 582.966,576.032 587.984,575.825L593.014,575.602L593.014,566.11ZM701.269,796.92L701.277,797.038L701.17,797.549L701.031,797.843L700.81,798.135L700.365,798.463C699.815,798.745 696.789,799.571 680.233,799.862C677.351,799.912 674.879,799.189 672.812,797.872C670.733,796.547 669.021,794.691 667.68,792.302C666.38,789.985 665.418,787.243 664.807,784.068C664.215,780.991 663.917,777.605 663.917,773.912C663.917,770.584 664.214,767.356 664.806,764.228C665.415,761.018 666.404,758.174 667.766,755.692C669.159,753.152 670.964,751.114 673.182,749.578C675.4,748.041 678.102,747.249 681.295,747.249C683.399,747.249 685.471,747.739 687.508,748.723C688.626,749.263 689.668,749.904 690.634,750.646L690.634,728.979L701.281,728.979L701.281,796.905L701.269,796.92ZM699.963,796.905L699.963,730.555L691.952,730.555L691.952,753.815C690.536,752.3 688.89,751.09 687.015,750.184C685.139,749.278 683.232,748.825 681.295,748.825C678.363,748.825 675.879,749.53 673.842,750.941C671.805,752.352 670.147,754.224 668.867,756.556C667.588,758.888 666.663,761.561 666.091,764.577C665.52,767.592 665.234,770.704 665.234,773.912C665.234,777.477 665.52,780.745 666.091,783.715C666.663,786.686 667.557,789.256 668.774,791.424C669.991,793.593 671.544,795.279 673.432,796.482C675.32,797.685 677.581,798.333 680.214,798.286C700.391,797.932 699.963,796.905 699.963,796.905ZM691.952,761.97L691.933,788.891C691.312,789.604 683.009,789.775 682.114,789.775C679.282,789.775 677.14,788.409 675.686,785.676C674.233,782.943 673.507,778.962 673.507,773.734C673.507,770.852 673.755,768.379 674.252,766.314C674.749,764.25 675.413,762.549 676.245,761.212C677.078,759.875 678.053,758.888 679.171,758.249C680.288,757.61 681.468,757.291 682.711,757.291C683.58,757.291 684.437,757.417 685.282,757.67C686.126,757.922 686.946,758.264 687.741,758.695C688.536,759.125 689.288,759.623 689.996,760.187C690.704,760.752 691.356,761.346 691.952,761.97ZM690.616,787.697L690.634,762.701C690.206,762.285 689.749,761.884 689.265,761.498C688.616,760.981 687.926,760.525 687.197,760.13C686.475,759.738 685.73,759.428 684.962,759.198C684.223,758.977 683.472,758.866 682.711,758.866C681.668,758.866 680.677,759.134 679.739,759.671C678.805,760.204 677.997,761.037 677.302,762.153C676.553,763.356 675.965,764.892 675.518,766.75C675.05,768.693 674.824,771.022 674.824,773.734C674.824,778.586 675.449,782.294 676.798,784.831C677.999,787.088 679.775,788.2 682.114,788.2C682.82,788.2 688.311,788.11 690.616,787.697ZM751.625,729.27L751.625,725.192L753.366,729.27L754.156,729.27L756.939,735.765L759.688,729.27L760.498,729.27L762.232,725.247L762.232,729.27L762.979,729.27L762.979,745.924L759.597,745.924L759.597,738.239L758.001,741.943L757.277,741.943L756.953,742.708L756.626,741.943L755.818,741.943L754.26,738.294L754.26,745.924L750.878,745.924L750.878,733.172L747.75,733.172L747.75,745.924L744.368,745.924C744.368,745.924 744.368,733.172 744.368,733.172L740.095,733.172L740.095,729.27L751.625,729.27ZM760.915,744.349L761.662,744.349L761.662,730.846L760.498,730.846L756.946,739.236L753.35,730.846L752.195,730.846L752.195,744.349L752.942,744.349L752.942,731.743L756.625,740.368L757.198,740.368L760.915,731.743L760.915,744.349ZM746.432,731.597L750.697,731.597L750.697,730.846L741.413,730.846L741.413,731.597L745.686,731.597L745.686,744.349L746.432,744.349L746.432,731.597ZM646.075,783.938C646.075,786.822 645.592,789.269 644.664,791.291C643.731,793.323 642.477,794.987 640.904,796.286C639.371,797.551 637.603,798.472 635.596,799.04C633.661,799.587 631.635,799.862 629.517,799.862C627.38,799.862 625.445,799.641 623.712,799.204C621.951,798.761 620.383,798.148 619.006,797.372C617.588,796.573 616.37,795.616 615.347,794.507C614.327,793.401 613.576,792.267 612.835,790.9L612.649,790.434L612.569,789.964L612.58,789.463L612.715,788.854C612.956,788.111 613.664,787.068 614.619,786.107C615.921,784.798 617.658,783.614 618.834,783.355C619.333,783.245 619.773,783.276 620.127,783.404L620.61,783.664L621.047,784.108C621.868,785.24 623.133,786.992 624.521,787.704C625.932,788.427 627.524,788.779 629.293,788.779C630.19,788.779 631.063,788.697 631.914,788.532C632.675,788.385 633.35,788.126 633.936,787.745C634.452,787.41 634.87,786.963 635.187,786.4C635.488,785.865 635.615,785.187 635.615,784.384C635.615,783.82 635.532,783.335 635.327,782.94C635.103,782.507 634.735,782.138 634.251,781.797C633.623,781.355 632.808,780.946 631.81,780.557C630.733,780.137 629.432,779.711 627.898,779.274L627.889,779.271C626.085,778.724 624.357,778.101 622.705,777.402C620.955,776.662 619.415,775.684 618.082,774.477C616.701,773.225 615.589,771.658 614.752,769.771C613.918,767.894 613.48,765.564 613.48,762.772C613.48,760.553 613.83,758.501 614.523,756.614C615.225,754.699 616.282,753.034 617.7,751.624C619.074,750.257 620.77,749.175 622.797,748.394C624.763,747.637 627.052,747.249 629.666,747.249C631.478,747.249 633.179,747.455 634.768,747.863C636.381,748.278 637.846,748.87 639.165,749.635C640.507,750.413 641.692,751.347 642.722,752.433C643.733,753.499 644.411,754.731 645.208,755.978L645.47,756.578L645.55,757.19L645.481,757.802L645.239,758.49C644.819,759.38 643.692,760.638 642.419,761.668C641.153,762.692 639.757,763.483 638.896,763.633L638.281,763.658L637.792,763.531L637.347,763.247L636.959,762.765C636.662,762.24 636.236,761.628 635.777,761.079C635.337,760.552 634.816,760.091 634.219,759.69C633.602,759.275 632.907,758.948 632.138,758.702C631.358,758.452 630.484,758.332 629.517,758.332C627.734,758.332 626.303,758.7 625.241,759.525C624.391,760.186 623.978,761.155 623.978,762.415C623.978,762.986 624.045,763.473 624.218,763.867C624.389,764.255 624.678,764.59 625.06,764.901C625.559,765.307 626.215,765.659 627.022,765.976C627.937,766.337 629.046,766.703 630.354,767.08L630.361,767.082C632.665,767.778 634.747,768.52 636.607,769.307C638.571,770.138 640.232,771.167 641.595,772.381C643.033,773.662 644.138,775.24 644.913,777.112C645.675,778.95 646.075,781.222 646.075,783.938ZM644.757,783.938C644.757,781.502 644.416,779.46 643.733,777.811C643.049,776.162 642.074,774.773 640.807,773.645C639.54,772.516 637.994,771.565 636.168,770.793C634.342,770.02 632.299,769.293 630.038,768.609C628.697,768.223 627.554,767.844 626.61,767.473C625.666,767.102 624.902,766.678 624.318,766.203C623.735,765.728 623.312,765.193 623.051,764.599C622.791,764.005 622.66,763.277 622.66,762.415C622.66,760.574 623.281,759.17 624.523,758.204C625.765,757.239 627.43,756.756 629.517,756.756C630.61,756.756 631.597,756.897 632.479,757.18C633.361,757.462 634.156,757.841 634.864,758.316C635.572,758.791 636.187,759.341 636.708,759.965C637.23,760.588 637.712,761.284 638.05,761.881C638.786,763.179 644.959,758.184 644.161,756.935C643.418,755.771 642.795,754.61 641.851,753.615C640.907,752.62 639.82,751.766 638.59,751.053C637.361,750.34 635.994,749.79 634.491,749.404C632.988,749.018 631.38,748.825 629.666,748.825C627.206,748.825 625.051,749.181 623.201,749.894C621.35,750.607 619.797,751.587 618.543,752.835C617.288,754.083 616.35,755.553 615.729,757.246C615.108,758.94 614.798,760.782 614.798,762.772C614.798,765.267 615.17,767.354 615.916,769.033C616.661,770.711 617.648,772.107 618.878,773.221C620.108,774.335 621.53,775.234 623.145,775.917C624.759,776.6 626.449,777.209 628.212,777.744C629.777,778.19 631.113,778.628 632.218,779.059C633.324,779.489 634.224,779.95 634.92,780.44C635.615,780.93 636.125,781.487 636.448,782.111C636.771,782.735 636.932,783.492 636.932,784.384C636.932,785.542 636.715,786.508 636.28,787.28C635.845,788.052 635.274,788.669 634.566,789.129C633.858,789.59 633.044,789.909 632.125,790.087C631.206,790.266 630.262,790.355 629.293,790.355C627.331,790.355 625.567,789.954 624.002,789.152C622.437,788.35 620.979,786.418 620.052,785.141C618.949,783.623 613.229,788.73 613.941,790.043C614.617,791.291 615.301,792.33 616.232,793.34C617.164,794.35 618.276,795.219 619.567,795.947C620.859,796.675 622.331,797.247 623.983,797.663C625.635,798.079 627.48,798.286 629.517,798.286C631.529,798.286 633.454,798.027 635.292,797.507C637.131,796.987 638.752,796.148 640.155,794.989C641.559,793.83 642.677,792.345 643.509,790.533C644.341,788.721 644.757,786.523 644.757,783.938Z" style="fill:rgb(28,20,20);"/>
                        </g>
                    </g>
                </g>
            </g>
        </g>
    </g>
    <defs>
        <linearGradient id="_Linear2" x1="0" y1="0" x2="1" y2="0" gradientUnits="userSpaceOnUse" gradientTransform="matrix(353,-1.67122,1.46517,402.644,478,721.998)"><stop offset="0" style="stop-color:rgb(1,185,255);stop-opacity:1"/><stop offset="0.5" style="stop-color:rgb(215,215,215);stop-opacity:1"/><stop offset="0.71" style="stop-color:rgb(224,193,199);stop-opacity:1"/><stop offset="1" style="stop-color:rgb(244,145,164);stop-opacity:1"/></linearGradient>
    </defs>
</svg>
