<svg id="Layer_1" data-name="Layer 1" xmlns="http://www.w3.org/2000/svg" height="20" viewBox="0 0 756.43 799.95" width="20"><defs><style>.cls-1{fill:#221e1b;fill-rule:evenodd;}</style></defs><path class="cls-1" d="M409.73.05C200.89.05,31.54,183.66,31.54,410.17c0,181.18,108.36,334.89,258.67,389.12,18.91,3.77,25.81-8.89,25.81-19.76,0-9.74-.33-35.53-.51-69.75-105.21,24.78-127.41-55-127.41-55-17.19-47.37-42-60-42-60-34.34-25.44,2.6-24.92,2.6-24.92,37.95,2.9,57.93,42.26,57.93,42.26,33.74,62.67,88.52,44.57,110.07,34.07,3.44-26.5,13.21-44.57,24-54.82-84-10.35-172.27-45.54-172.27-202.69,0-44.77,14.73-81.38,38.93-110-3.89-10.38-16.87-52.07,3.7-108.54,0,0,31.76-11,104,42a331.73,331.73,0,0,1,189.37,0c72.21-53.06,103.91-42,103.91-42C629,226.6,616,268.29,612.13,278.67c24.24,28.66,38.88,65.27,38.88,110,0,157.55-88.43,192.21-172.69,202.37C491.9,603.74,504,628.77,504,667c0,54.83-.46,99.06-.46,112.51,0,11,6.81,23.72,26,19.72C679.7,744.91,788,591.3,788,410.17,788,183.66,618.62.05,409.73.05Z" transform="translate(-31.54 -0.05)"/></svg>